solid fluidInlet
 facet normal -0.000000e+00  0.000000e+00 -1.000000e+00
   outer loop
     vertex  2.500000e-04  2.500000e-04  0.000000e+00
     vertex -2.500000e-04 -2.500000e-04  0.000000e+00
     vertex -2.500000e-04  2.500000e-04  0.000000e+00
   endloop
 endfacet
 facet normal  0.000000e+00 -0.000000e+00 -1.000000e+00
   outer loop
     vertex  2.500000e-04  2.500000e-04  0.000000e+00
     vertex  2.500000e-04 -2.500000e-04  0.000000e+00
     vertex -2.500000e-04 -2.500000e-04  0.000000e+00
   endloop
 endfacet
endsolid fluidInlet
